<?xml version="1.0" encoding="UTF-8"?>
<svg id="Camada_1" data-name="Camada 1" xmlns="http://www.w3.org/2000/svg" viewBox="0 0 77.19 63.12">
  <polygon points="36.36 47.55 33.49 61.46 29.48 56.24 36.36 47.55" style="fill: #fdc20b; stroke-width: 0px;"/>
  <polygon points="38.55 50.2 41.2 63.12 35.98 63.12 38.55 50.2" style="fill: #fdc20b; stroke-width: 0px;"/>
  <polygon points="48.91 35.06 63.73 21.07 53.07 27.57 48.91 35.06" style="fill: #fdc20b; stroke-width: 0px;"/>
  <polygon points="53.71 25.63 63.69 19.05 73.75 5.59 57.19 19.28 53.71 25.63" style="fill: #fdc20b; stroke-width: 0px;"/>
  <polygon points="23.41 25.65 13.43 19.07 3.38 5.61 19.93 19.3 23.41 25.65" style="fill: #fdc20b; stroke-width: 0px;"/>
  <polygon points="38.58 46.72 54.96 17.86 77.19 .3 51.08 11.12 43.32 25.63 40.75 18.07 43.7 17.01 38.58 13.68 35.83 15.12 33.34 25.63 25.66 11.12 0 0 21.7 17.84 38.58 46.72" style="fill: #fdc20b; stroke-width: 0px;"/>
  <polygon points="40.82 47.55 43.7 61.46 47.7 56.24 40.82 47.55" style="fill: #fdc20b; stroke-width: 0px;"/>
  <polygon points="28.21 35.06 13.39 21.07 24.05 27.57 28.21 35.06" style="fill: #fdc20b; stroke-width: 0px;"/>
</svg>