<?xml version="1.0" encoding="utf-8"?>
<!-- Generator: Adobe Illustrator 28.1.0, SVG Export Plug-In . SVG Version: 6.00 Build 0)  -->
<svg version="1.1" id="Camada_1" xmlns="http://www.w3.org/2000/svg" xmlns:xlink="http://www.w3.org/1999/xlink" x="0px" y="0px"
	 viewBox="0 0 250 88" style="enable-background:new 0 0 250 88;" xml:space="preserve">
<style type="text/css">
	.st0{fill:#FDC20B;}
	.st1{fill:none;}
	.st2{fill:#FDC209;}
</style>
<g>
	<g>
		<polygon class="st0" points="43.5,56.5 40.6,70.4 36.6,65.2 		"/>
		<polygon class="st0" points="45.7,59.1 48.3,72.1 43.1,72.1 		"/>
		<polygon class="st0" points="56,44 70.8,30 60.2,36.5 		"/>
		<polygon class="st0" points="60.8,34.6 70.8,28 80.8,14.5 64.3,28.2 		"/>
		<polygon class="st0" points="30.5,34.6 20.5,28 10.5,14.6 27,28.2 		"/>
		<polygon class="st0" points="45.7,55.7 62.1,26.8 84.3,9.2 58.2,20.1 50.4,34.6 47.8,27 50.8,26 45.7,22.6 42.9,24.1 40.4,34.6 
			32.8,20.1 7.1,8.9 28.8,26.8 		"/>
		<polygon class="st0" points="47.9,56.5 50.8,70.4 54.8,65.2 		"/>
		<polygon class="st0" points="35.3,44 20.5,30 31.2,36.5 		"/>
		<path class="st1" d="M58.6,15"/>
		<path class="st1" d="M58.6,21.3"/>
	</g>
</g>
<g>
	<path class="st2" d="M87,31.4h8.7v3h-5.4v5.8h4.2v3h-4.2v9.1H87V31.4z"/>
	<path class="st2" d="M98.4,31.4h3.3v20.8h-3.3V31.4z"/>
	<path class="st2" d="M107.8,34.4h-3.4v-3h10.1v3H111v17.9h-3.3V34.4z"/>
	<path class="st2" d="M117.1,31.4h4.1l3.2,12.5h0.1V31.4h2.9v20.8H124L120.1,37h-0.1v15.2h-2.9V31.4z"/>
	<path class="st2" d="M131,31.4h8.9v3h-5.7v5.5h4.5v3h-4.5v6.4h5.7v3H131V31.4z"/>
	<path class="st2" d="M143.6,51.2c-0.8-0.9-1.2-2.2-1.2-3.9v-1.2h3.1v1.4c0,1.3,0.6,2,1.7,2c0.6,0,1-0.2,1.3-0.5
		c0.3-0.3,0.4-0.9,0.4-1.6c0-0.9-0.2-1.6-0.6-2.3c-0.4-0.7-1.1-1.5-2.2-2.4c-1.3-1.2-2.3-2.3-2.8-3.2c-0.5-1-0.8-2-0.8-3.3
		c0-1.6,0.4-2.9,1.3-3.8c0.8-0.9,2-1.4,3.6-1.4c1.6,0,2.8,0.5,3.6,1.4c0.8,0.9,1.2,2.2,1.2,3.9v0.9H149v-1.1c0-0.7-0.1-1.2-0.4-1.6
		c-0.3-0.3-0.7-0.5-1.2-0.5c-1.1,0-1.6,0.7-1.6,2c0,0.8,0.2,1.5,0.6,2.1c0.4,0.7,1.1,1.4,2.2,2.4c1.4,1.2,2.3,2.3,2.8,3.2
		c0.5,1,0.8,2.1,0.8,3.4c0,1.7-0.4,3-1.3,3.9c-0.8,0.9-2.1,1.4-3.7,1.4C145.6,52.5,144.4,52.1,143.6,51.2z"/>
	<path class="st2" d="M155.8,51.2c-0.8-0.9-1.2-2.2-1.2-3.9v-1.2h3.1v1.4c0,1.3,0.6,2,1.7,2c0.6,0,1-0.2,1.3-0.5
		c0.3-0.3,0.4-0.9,0.4-1.6c0-0.9-0.2-1.6-0.6-2.3c-0.4-0.7-1.1-1.5-2.2-2.4c-1.3-1.2-2.3-2.3-2.8-3.2c-0.5-1-0.8-2-0.8-3.3
		c0-1.6,0.4-2.9,1.3-3.8c0.8-0.9,2-1.4,3.6-1.4c1.6,0,2.8,0.5,3.6,1.4c0.8,0.9,1.2,2.2,1.2,3.9v0.9h-3.1v-1.1c0-0.7-0.1-1.2-0.4-1.6
		c-0.3-0.3-0.7-0.5-1.2-0.5c-1.1,0-1.6,0.7-1.6,2c0,0.8,0.2,1.5,0.6,2.1c0.4,0.7,1.1,1.4,2.2,2.4c1.4,1.2,2.3,2.3,2.8,3.2
		c0.5,1,0.8,2.1,0.8,3.4c0,1.7-0.4,3-1.3,3.9c-0.8,0.9-2.1,1.4-3.7,1.4C157.8,52.5,156.6,52.1,155.8,51.2z"/>
	<path class="st2" d="M173.2,31.4h8.7v3h-5.4v5.8h4.2v3h-4.2v9.1h-3.3V31.4z"/>
	<path class="st2" d="M185.6,51.2c-0.8-0.9-1.3-2.2-1.3-3.9V31.4h3.3v16.1c0,0.7,0.1,1.2,0.4,1.5c0.3,0.3,0.7,0.5,1.2,0.5
		s0.9-0.2,1.2-0.5c0.3-0.3,0.4-0.8,0.4-1.5V31.4h3.2v15.9c0,1.7-0.4,3-1.3,3.9c-0.8,0.9-2,1.4-3.6,1.4
		C187.7,52.5,186.5,52.1,185.6,51.2z"/>
	<path class="st2" d="M198.2,51.2c-0.8-0.9-1.2-2.2-1.2-3.9v-1.2h3.1v1.4c0,1.3,0.6,2,1.7,2c0.6,0,1-0.2,1.3-0.5
		c0.3-0.3,0.4-0.9,0.4-1.6c0-0.9-0.2-1.6-0.6-2.3c-0.4-0.7-1.1-1.5-2.2-2.4c-1.3-1.2-2.3-2.3-2.8-3.2c-0.5-1-0.8-2-0.8-3.3
		c0-1.6,0.4-2.9,1.3-3.8c0.8-0.9,2-1.4,3.6-1.4c1.6,0,2.8,0.5,3.6,1.4c0.8,0.9,1.2,2.2,1.2,3.9v0.9h-3.1v-1.1c0-0.7-0.1-1.2-0.4-1.6
		c-0.3-0.3-0.7-0.5-1.2-0.5c-1.1,0-1.6,0.7-1.6,2c0,0.8,0.2,1.5,0.6,2.1c0.4,0.7,1.1,1.4,2.2,2.4c1.4,1.2,2.3,2.3,2.8,3.2
		c0.5,1,0.8,2.1,0.8,3.4c0,1.7-0.4,3-1.3,3.9c-0.8,0.9-2.1,1.4-3.7,1.4C200.2,52.5,199,52.1,198.2,51.2z"/>
	<path class="st2" d="M209.8,31.4h3.3v20.8h-3.3V31.4z"/>
	<path class="st2" d="M217.6,51.2c-0.9-0.9-1.3-2.2-1.3-3.9v-11c0-1.7,0.4-3,1.3-3.9c0.9-0.9,2.1-1.4,3.7-1.4s2.8,0.5,3.7,1.4
		c0.9,0.9,1.3,2.2,1.3,3.9v11c0,1.7-0.4,3-1.3,3.9c-0.9,0.9-2.1,1.4-3.7,1.4S218.5,52.1,217.6,51.2z M223,47.5V36.1
		c0-1.4-0.6-2.1-1.7-2.1s-1.7,0.7-1.7,2.1v11.4c0,1.4,0.6,2.1,1.7,2.1S223,48.9,223,47.5z"/>
	<path class="st2" d="M229.6,31.4h4.1l3.2,12.5h0.1V31.4h2.9v20.8h-3.4L232.6,37h-0.1v15.2h-2.9V31.4z"/>
</g>
</svg>
